<svg id="divider-center-black" xmlns="http://www.w3.org/2000/svg" width="1983" height="40" viewBox="0 0 1983 40">
  <g id="Component_17_4" data-name="Component 17 – 4" transform="translate(0 8)">
    <path id="Intersection_1" data-name="Intersection 1" d="M330.506,32c2.653-.749,11.677-3.6,5.526-6.095-15.04,2.892-4.88-1.332-18.567-6.02-3.461,2.575-6.784,2.478-9.561,2.382-3.52-.123-6.162-.245-7.092,5.074-4.87-6.311-3.568-3.974-13.027-8.516,4.208,5.139-17.905,5.125-17.284,11.291-3.887-7.046,16-8.648,3.628-15.986-8.477,4.7-24.2,6.436-25.492,14.044-6.281-1.687-9.233-4.35-18.589-5.208a8.52,8.52,0,0,0,3.629-1.817c-17.925,5.111-44.378-.007-54.5,9.2,3.617-10.985-38.086-1.346-24.409-11.589-7.484.354-19.278,5.028-21.843,7.074.8-8.558-18.588-2.171-26.724-7.24-4.024,4.595-16.464,3.32-24.677,5.642,2.9-1,4.32-2.409,3.174-4.49-9.149,3.509-6.873.16-14.679-3.946-12.415,2.629,2.284,6.554-5.221,10.563-10.751-1.949-1.623-5.43-3.567-8.967L45.212,26.03A10.545,10.545,0,0,1,38.379,21.2c-5.521,2.5-10.462,6.158-18.247,2.032l13.728-.278-5.251-4.383L12.3,24.1C6.492,22.53,2.578,20.784,0,18.9V0H1983V23.381c-10.78,0-21.365.316-31.834,1.061-4.319,1.873,2.495,2.3,3.217,4.979-5.11-.791-6.564-6.152-13.507-2.767l1.553,3.454c-12.147-4.237-29.168-3.346-46.012-2.455-20.406,1.079-40.551,2.158-51.453-5.881-11.765,2.53-21.938,1.911-32.506,1.292-12.518-.733-25.59-1.466-42.514,3.035-9.85-3.079,11.453-5.957-1.863-6.817l-28.734,5.365c-14.45,4.742-33.4,1.415-53.089-1.911-12.962-2.19-26.24-4.379-38.777-4.268-.421.016-.834.022-1.236.018a76.582,76.582,0,0,0-14.315,1.558l1.493-.513c.812-2.386-6.413-5.291-12.074-4.473-1.974,1.7,1.834,2.587,5.221,4.619-31.223,4.036-38.066,4.223-62.745,5.035,10.651-3.579-9.89-3.114-10.952-8.086-6.5,3.246,3.728,5.153-10.722,7.871-20.57.464-39.518-3.821-56.583-5.569-6.914,4.411-16,3.2-16.453,8.662-23.226.319-36.162,2.5-64.669,2.441l-.732-1.879c-4.191,3.723-11.177,2.347-17.519.972-5.272-1.143-10.1-2.286-12.51-.5.791-2.406,3.828-3.405,3.066-5.291l-12.956,2.2c2.8-.942,5.05-2.806,5.646-4.621-1.492.228-2.4.566-2.3,1.2-2.423-1.589-5.588-2.738-7.2-4.462-5.4,3.151,5.26,2.327.454,5.807l-3.347-6.332c-8.366.693-10.711,7.844-.481,9.765-12.325-.033-24.581.514-36.577,1.061-15.772.719-31.095,1.438-45.527.84l2.705-4.126c-3.1.336-6.432.6-9.842.76l.293.273a30.44,30.44,0,0,1-15.833-.28,64.655,64.655,0,0,1-13.162-1.87,33.036,33.036,0,0,0-4.189.713c-.9,1.054-1.692,2.219-.3,3.06-8.259,2.759-8.812,1.141-9.439-.477-.542-1.4-1.139-2.8-6.812-1.371,3.448-.963,6.648-1.877,7.2-3.63L1190.828,26.9c-.273-2.32-12.264-6.825-24.358-7.7-.154-.009-.31-.02-.469-.032a49.778,49.778,0,0,0-7.21.025,20.472,20.472,0,0,0-3.281,1.792c1.07,1.416,4.135,2.828,6.942,3.1l-9.268,1.533-.715-.715c.108,1.109,1.481,1.89,4.592,1.915-3.4.728-10.831-2.3-8.378-5.709l-.1-.1c-8.54-.029-11.745,2.028-13.957,4.085-3.174,2.952-4.306,5.9-16.224,2.692,1.382-.347,2.866-.929,2.1-1.616q-1.825-.292-3.506-.449a12.494,12.494,0,0,1-6.423,1.371c-6.308-.8-11.016-1.526-14.718-2.223a2.983,2.983,0,0,1-1.715,2.258c.1-1.921-4.179-1.935-9.239-2.739l4.919,4.6a59.81,59.81,0,0,0-13.656,1.061l8.607-1.858c-9.328-.818-23.527-8.184-39.88-3.738,2.073-.891,5.112-2.2,6.553-3.59-2.092-.052-4.278-.185-6.455-.318-8.193-.5-16.267-1-18.765,2.8a115.807,115.807,0,0,0-22.334-4.093,11.725,11.725,0,0,0,1.944,1.1,136.879,136.879,0,0,0-20.909-.8,114.936,114.936,0,0,1-21.023-.989c5.768,1.119,8.733,2.548-.012,4.414,3.526-3.031-7.849-3.47-15.953-4.746q-2.974,0-5.946-.017l-.907,1.184A6,6,0,0,1,939.2,18.2c-6.64-.077-13.25-.274-19.74-.7l3.046-1.013c-.419-.14-.826-.266-1.227-.38a30.857,30.857,0,0,0-6.812,3.063c-4.589,2.578-8.874,5.157-18.374,3.371a24.2,24.2,0,0,1-8.847.313l4.2-1.653L890.967,21a82.7,82.7,0,0,0-16.628-2.343c.515.541.24,1.22-1.354,2.144a31.8,31.8,0,0,0-4.848-2.321c-20.227-.146-43.545,3.6-58.177,6.982,1.737-.7,2.412-1.713,2.15-2.651a57.076,57.076,0,0,1-8.506-.523c-.22,2.535,4.718,5.74-4.586,4.04,2.926-1.11.621-3.62-2.084-3.683l-11.613,5.7c-30.4-3.918-66.163-8.024-97.675-4.723-5.842-2.018-1.563-4.085-.18-6.047-24.99,1.207-49.84,5.971-72.4,7.011l-2.294-6.6c-11.052,0-6.844,10.119-21.223,4.23-3.206-.888,9.5-.423,13.447-3.356-12.752-2.885-15.174-.328-18.946,2.229-2.794,1.893-6.327,3.787-15.342,3.471l5.541-7.455a36.09,36.09,0,0,0-5.858-1.133c-.14.041-.276.083-.405.127-.061-.058-.121-.118-.181-.179-10.57-.812-12.982,5.771-17.995,9.507-11.816,4.55-15.742.532-21.091-3.486-4.98-3.741-11.193-7.482-26.154-4.309-4.92,3.669,1.623,5.423-3.3,9.085a89.823,89.823,0,0,0-23.152.715,90.288,90.288,0,0,1-23.161.721c-5.938-5.654-2.963-5.561-.269-5.467,2.606.09,4.948.18-1.3-4.935l16.633,2.517c-13.639-5.577,10.431-1.9,10.916-7.186-9.454,1-18.068,3.165-26.608,3.338l.763-1.487c-4.455.979-8.955,2-13.277,2.761l-.109.028.018-.013q-1.03.18-2.045.339c0-1.716,1.931-2.32,4.2-2.649l-9.943.032a15.249,15.249,0,0,0,1.459,3.332,5.425,5.425,0,0,0-1.546-1.312c-14.058,7.164-37.815,1.741-49.88,7.441,1.944-1.484.281-1.914-.351-3.093-8.507-.284-17.264,6.3-28.677,8.2-6.223-3.676,3.6-10.992-14.679-8.953-2.9,3.68,3.275,9.8-6.3,10.949Zm777.246-5.942a27.767,27.767,0,0,0,4.249-.5A25.286,25.286,0,0,0,1107.752,26.058Zm-427.613-9.9c1.673-.076,4.308-.18,7.384-.312v-.111C683.816,15.968,681.682,16.079,680.139,16.155Zm37.455-.506c-4.489-1.6-11.573-2.677-9.931-3.939-3.016-.1-4.158,1.845-3.106,3.724q1.543-.011,3.044-.012C711.282,15.422,714.717,15.479,717.594,15.648Zm-273.5-.281c3.737-.508,8.233-.356,6.553-3.188A14.693,14.693,0,0,0,444.093,15.368ZM433.507,9.386a13.186,13.186,0,0,0,.359,5.839c5.611-1.786,7.6-3.466,8.088-7.388A39.891,39.891,0,0,1,433.507,9.386Zm757.073,3.946a9.879,9.879,0,0,0,1.427-.362A12.668,12.668,0,0,0,1190.579,13.332Zm293.5-.257a2.246,2.246,0,0,0,.263-.474A.677.677,0,0,0,1484.084,13.076ZM503.271,4.9c.22-.049.427-.1.625-.165C503.663,4.805,503.453,4.862,503.271,4.9Zm614.661,24.953c.2.021.27.021.48.054-.863.106-1.7.174-1.96.174S1116.508,30.018,1117.932,29.857ZM132.643,28.9c-.03.172.1.3.01.5C131.753,29.382,131.963,29.181,132.643,28.9Zm997.387.047,2.62-.629.04.719Zm237.113-1.97a7.435,7.435,0,0,1,2.561,1.237C1367.8,27.616,1367.233,27.26,1367.143,26.973ZM435.717,25.5a15.256,15.256,0,0,0,4.659,2.542c-1.789.018-3.252.028-4.438.028C425.232,28.068,437.112,27.308,435.717,25.5Zm726.769,2.474,3.68-.338a8.974,8.974,0,0,1-2.79.36C1163.086,27.995,1162.788,27.987,1162.486,27.972Zm-310.009-.356,9.43-.564-12.78.935Zm362.21-1.212-.634.209Q1214.367,26.507,1214.688,26.4Zm-208.845-.345c1.16.072,2.23.122,3.51.227a3.429,3.429,0,0,1-.987.122A11.9,11.9,0,0,1,1005.843,26.06Zm212.041-.588c-1.065.3-2.154.6-3.2.932C1215.9,26.01,1216.96,25.7,1217.884,25.472ZM81.527,24.237c-.347.12-.716.235-1.1.344Q80.96,24.4,81.527,24.237Zm147.6-1.349c.313.024.619.049.92.077a2.716,2.716,0,0,1-.275.014A2.231,2.231,0,0,1,229.129,22.889Zm206.552-3.64c.031.007.031.029.031.029S435.712,19.259,435.681,19.248Zm-.3-.485a2.751,2.751,0,0,1,.287.471Q435.523,19,435.384,18.763Z" transform="translate(0 0)" fill="#312f30"/>
  </g>
  <g id="Component_17_3" data-name="Component 17 – 3" transform="translate(1983 19.351) rotate(180)">
    <path id="Intersection_1-2" data-name="Intersection 1" d="M330.506,19.351c2.653-.453,11.677-2.175,5.526-3.685-15.04,1.749-4.88-.805-18.567-3.64a21.01,21.01,0,0,1-9.561,1.44c-3.52-.074-6.162-.148-7.092,3.068-4.87-3.816-3.568-2.4-13.027-5.15,4.208,3.108-17.905,3.1-17.284,6.827-3.887-4.261,16-5.23,3.628-9.667-8.477,2.839-24.2,3.892-25.492,8.492-6.281-1.02-9.233-2.63-18.589-3.149a11.348,11.348,0,0,0,3.629-1.1c-17.925,3.091-44.378,0-54.5,5.565,3.617-6.643-38.086-.814-24.409-7.008-7.484.214-19.278,3.04-21.843,4.278.8-5.175-18.588-1.313-26.724-4.378-4.024,2.778-16.464,2.008-24.677,3.411,2.9-.607,4.32-1.457,3.174-2.715-9.149,2.122-6.873.1-14.679-2.386-12.415,1.59,2.284,3.963-5.221,6.387-10.751-1.179-1.623-3.284-3.567-5.422L45.212,15.741c-3.236-.528-5.521-1.514-6.834-2.923-5.521,1.514-10.462,3.724-18.247,1.229l13.728-.168-5.251-2.65L12.3,14.571A53.046,53.046,0,0,1,0,11.432V0H1983V14.139c-10.78,0-21.365.191-31.834.642-4.319,1.132,2.495,1.388,3.217,3.011-5.11-.478-6.564-3.72-13.507-1.673l1.553,2.088c-12.147-2.562-29.168-2.023-46.012-1.485-20.406.653-40.551,1.305-51.453-3.556-11.765,1.53-21.938,1.156-32.506.781-12.518-.443-25.59-.887-42.514,1.835-9.85-1.862,11.453-3.6-1.863-4.122L1739.346,14.9c-14.45,2.867-33.4.856-53.089-1.155-12.962-1.324-26.24-2.648-38.777-2.581-.421.01-.834.013-1.236.011a125.051,125.051,0,0,0-14.315.942l1.493-.31c.812-1.443-6.413-3.2-12.074-2.7-1.974,1.028,1.834,1.564,5.221,2.793-31.223,2.441-38.066,2.554-62.745,3.045,10.651-2.164-9.89-1.883-10.952-4.89-6.5,1.963,3.728,3.116-10.722,4.76-20.57.281-39.518-2.311-56.583-3.368-6.914,2.667-16,1.933-16.453,5.238-23.226.193-36.162,1.51-64.669,1.476l-.732-1.137c-4.191,2.251-11.177,1.419-17.519.588-5.272-.691-10.1-1.382-12.51-.3.791-1.455,3.828-2.059,3.066-3.2l-12.956,1.329c2.8-.57,5.05-1.7,5.646-2.794-1.492.138-2.4.342-2.3.727-2.423-.961-5.588-1.656-7.2-2.7-5.4,1.905,5.26,1.407.454,3.512l-3.347-3.829c-8.366.419-10.711,4.743-.481,5.9-12.325-.02-24.581.311-36.577.641-15.772.435-31.095.87-45.527.508l2.705-2.5c-3.1.2-6.432.361-9.842.46l.293.165a49.738,49.738,0,0,1-15.833-.169,104.661,104.661,0,0,1-13.162-1.131c-1.279.078-2.665.216-4.189.431-.9.637-1.692,1.342-.3,1.851-8.259,1.668-8.812.69-9.439-.288-.542-.845-1.139-1.69-6.812-.829,3.448-.582,6.648-1.135,7.2-2.2l-34.258,3.061c-.273-1.4-12.264-4.127-24.358-4.658l-.469-.019c-2.437-.1-4.872-.1-7.21.015a26.664,26.664,0,0,0-3.281,1.083c1.07.856,4.135,1.71,6.942,1.872l-9.268.927-.715-.433c.108.671,1.481,1.143,4.592,1.158-3.4.44-10.831-1.391-8.378-3.452l-.1-.059c-8.54-.018-11.745,1.226-13.957,2.47-3.174,1.785-4.306,3.57-16.224,1.628,1.382-.21,2.866-.562,2.1-.977q-1.825-.177-3.506-.272a19.573,19.573,0,0,1-6.423.829c-6.308-.485-11.016-.923-14.718-1.344-.1.5-.544.955-1.715,1.365.1-1.162-4.179-1.17-9.239-1.656l4.919,2.785a98.166,98.166,0,0,0-13.656.642l8.607-1.124c-9.328-.495-23.527-4.949-39.88-2.26a32.838,32.838,0,0,0,6.553-2.171c-2.092-.032-4.278-.112-6.455-.193-8.193-.3-16.267-.605-18.765,1.692a185.269,185.269,0,0,0-22.334-2.475,15.041,15.041,0,0,0,1.944.668c-8.159-.618-14.634-.55-20.909-.482a189.443,189.443,0,0,1-21.023-.6c5.768.677,8.733,1.541-.012,2.669,3.526-1.833-7.849-2.1-15.953-2.87q-2.974,0-5.946-.01l-.907.716A7.178,7.178,0,0,1,939.2,11c-6.64-.047-13.25-.166-19.74-.426l3.046-.612c-.419-.085-.826-.161-1.227-.23a42.934,42.934,0,0,0-6.812,1.852c-4.589,1.559-8.874,3.118-18.374,2.038a39.74,39.74,0,0,1-8.847.189l4.2-1-.473-.118a133.966,133.966,0,0,0-16.628-1.417c.515.327.24.738-1.354,1.3a43.507,43.507,0,0,0-4.848-1.4c-20.227-.088-43.545,2.177-58.177,4.222,1.737-.421,2.412-1.036,2.15-1.6-2.783.019-5.617-.074-8.506-.316-.22,1.533,4.718,3.471-4.586,2.443,2.926-.671.621-2.189-2.084-2.227l-11.613,3.447c-30.4-2.369-66.163-4.852-97.675-2.856-5.842-1.22-1.563-2.47-.18-3.657-24.99.73-49.84,3.611-72.4,4.24l-2.294-3.992c-11.052,0-6.844,6.119-21.223,2.558-3.206-.537,9.5-.256,13.447-2.03-12.752-1.745-15.174-.2-18.946,1.348-2.794,1.145-6.327,2.29-15.342,2.1l5.541-4.508a57.625,57.625,0,0,0-5.858-.685c-.14.025-.276.05-.405.077q-.092-.053-.181-.108c-10.57-.491-12.982,3.49-17.995,5.749-11.816,2.752-15.742.322-21.091-2.108-4.98-2.262-11.193-4.524-26.154-2.605-4.92,2.219,1.623,3.28-3.3,5.494a147.946,147.946,0,0,0-23.152.432,148.713,148.713,0,0,1-23.161.436c-5.938-3.419-2.963-3.363-.269-3.306,2.606.055,4.948.109-1.3-2.984l16.633,1.522c-13.639-3.373,10.431-1.148,10.916-4.346-9.454.607-18.068,1.914-26.608,2.018l.763-.9c-4.455.592-8.955,1.21-13.277,1.67l-.109.017.018-.008q-1.03.109-2.045.205c0-1.038,1.931-1.4,4.2-1.6l-9.943.019a8.062,8.062,0,0,0,1.459,2.015,5.562,5.562,0,0,0-1.546-.793c-14.058,4.332-37.815,1.053-49.88,4.5,1.944-.9.281-1.157-.351-1.87-8.507-.172-17.264,3.812-28.677,4.961-6.223-2.223,3.6-6.647-14.679-5.414-2.9,2.225,3.275,5.923-6.3,6.621Zm777.246-3.593c1.808-.06,3.195-.164,4.249-.3A41.218,41.218,0,0,0,1107.752,15.757ZM680.139,9.769c1.673-.046,4.308-.109,7.384-.189V9.513C683.816,9.656,681.682,9.723,680.139,9.769Zm37.455-.306c-4.489-.965-11.573-1.619-9.931-2.382-3.016-.063-4.158,1.115-3.106,2.252q1.543-.007,3.044-.007C711.282,9.326,714.717,9.36,717.594,9.463Zm-273.5-.17c3.737-.307,8.233-.215,6.553-1.928A19.687,19.687,0,0,0,444.093,9.293ZM433.507,5.676a4.964,4.964,0,0,0,.359,3.531c5.611-1.08,7.6-2.1,8.088-4.468A63.783,63.783,0,0,1,433.507,5.676Zm757.073,2.386c.5-.057,1-.127,1.427-.219Q1191.285,7.927,1190.579,8.062Zm293.5-.155a1.408,1.408,0,0,0,.263-.287C1484.181,7.711,1484.087,7.806,1484.084,7.907ZM503.271,2.965c.22-.029.427-.063.625-.1C503.663,2.906,503.453,2.94,503.271,2.965Zm614.661,15.089c.2.013.27.013.48.032-.863.064-1.7.105-1.96.105S1116.508,18.152,1117.932,18.054Zm-985.289-.581c-.03.1.1.183.01.3C131.753,17.767,131.963,17.646,132.643,17.474Zm997.387.028,2.62-.38.04.435Zm237.113-1.191a10.032,10.032,0,0,1,2.561.748C1367.8,16.7,1367.233,16.484,1367.143,16.311Zm-931.426-.892a19.69,19.69,0,0,0,4.659,1.537c-1.789.011-3.252.017-4.438.017C425.232,16.973,437.112,16.513,435.717,15.419Zm726.769,1.5,3.68-.2a14.537,14.537,0,0,1-2.79.218C1163.086,16.928,1162.788,16.924,1162.486,16.915ZM852.477,16.7l9.43-.341-12.78.565Zm362.21-.733-.634.126Q1214.367,16.029,1214.688,15.967Zm-208.845-.208c1.16.044,2.23.074,3.51.137a5.567,5.567,0,0,1-.987.074A19.3,19.3,0,0,1,1005.843,15.758Zm212.041-.355c-1.065.18-2.154.362-3.2.564C1215.9,15.729,1216.96,15.543,1217.884,15.4ZM81.527,14.656c-.347.073-.716.142-1.1.208Q80.96,14.753,81.527,14.656Zm147.6-.816c.313.014.619.03.92.046-.093.006-.184.009-.275.009A3.608,3.608,0,0,1,229.129,13.841Zm206.552-2.2c.031,0,.031.017.031.017S435.712,11.646,435.681,11.639Zm-.3-.293a1.79,1.79,0,0,1,.287.285Q435.523,11.488,435.384,11.346Z" fill="#312f30"/>
  </g>
</svg>
