<svg xmlns="http://www.w3.org/2000/svg" width="1983" height="80" viewBox="0 0 1983 80">
  <g id="divider-bottom-black" transform="translate(1983 80) rotate(180)">
    <path id="Intersection_1" data-name="Intersection 1" d="M330.506,80c2.653-1.874,11.677-8.991,5.526-15.236-15.04,7.23-4.88-3.329-18.567-15.05-3.461,6.438-6.784,6.2-9.561,5.954-3.52-.307-6.162-.613-7.092,12.684-4.87-15.777-3.568-9.934-13.027-21.291,4.208,12.848-17.905,12.813-17.284,28.226-3.887-17.615,16-21.62,3.628-39.964-8.477,11.738-24.2,16.09-25.492,35.109-6.281-4.216-9.233-10.874-18.589-13.02,1.36-.339,2.815-3.065,3.629-4.543-17.925,12.778-44.378-.017-54.5,23.008,3.617-27.464-38.086-3.364-24.409-28.971-7.484.884-19.278,12.569-21.843,17.684.8-21.4-18.588-5.427-26.724-18.1-4.024,11.487-16.464,8.3-24.677,14.1,2.9-2.508,4.32-6.023,3.174-11.226-9.149,8.773-6.873.4-14.679-9.866C57.607,46.073,72.306,55.886,64.8,65.908,54.05,61.036,63.178,52.333,61.234,43.49L45.212,65.076c-3.236-2.184-5.521-6.259-6.834-12.085-5.521,6.259-10.462,15.4-18.247,5.08l13.728-.694L28.609,46.42,12.3,60.238A37.325,37.325,0,0,1,0,47.262V0H1983V58.452a181.635,181.635,0,0,0-31.834,2.653c-4.319,4.682,2.495,5.739,3.217,12.449-5.11-1.976-6.564-15.379-13.507-6.918l1.553,8.634c-12.147-10.591-29.168-8.365-46.012-6.139-20.406,2.7-40.551,5.4-51.453-14.7-11.765,6.325-21.938,4.778-32.506,3.23-12.518-1.832-25.59-3.666-42.514,7.588-9.85-7.7,11.453-14.893-1.863-17.043l-28.734,13.411c-14.45,11.855-33.4,3.539-53.089-4.777-12.962-5.474-26.24-10.948-38.777-10.669a10.5,10.5,0,0,1-1.236.046,33.835,33.835,0,0,0-14.315,3.9l1.493-1.283c.812-5.964-6.413-13.229-12.074-11.183-1.974,4.248,1.834,6.467,5.221,11.547-31.223,10.09-38.066,10.558-62.745,12.587,10.651-8.947-9.89-7.785-10.952-20.216-6.5,8.114,3.728,12.882-10.722,19.679-20.57,1.161-39.518-9.553-56.583-13.923-6.914,11.027-16,7.993-16.453,21.655-23.226.8-36.162,6.241-64.669,6.1l-.732-4.7c-4.191,9.307-11.177,5.868-17.519,2.431-5.272-2.857-10.1-5.715-12.51-1.252.791-6.016,3.828-8.513,3.066-13.229l-12.956,5.5c2.8-2.356,5.05-7.015,5.646-11.552-1.492.57-2.4,1.415-2.3,3-2.423-3.972-5.588-6.846-7.2-11.154-5.4,7.877,5.26,5.817.454,14.518l-3.347-15.829c-8.366,1.734-10.711,19.609-.481,24.411-12.325-.083-24.581,1.285-36.577,2.652-15.772,1.8-31.095,3.6-45.527,2.1l2.705-10.316a69.572,69.572,0,0,1-9.842,1.9l.293.683c-7.392,3.984-11.849,1.976-15.833-.7a30.447,30.447,0,0,1-13.162-4.676,16.267,16.267,0,0,0-4.189,1.783c-.9,2.634-1.692,5.548-.3,7.651-8.259,6.9-8.812,2.852-9.439-1.192-.542-3.495-1.139-6.989-6.812-3.428,3.448-2.407,6.648-4.691,7.2-9.076L1190.828,67.26c-.273-5.8-12.264-17.062-24.358-19.257-.154-.023-.31-.05-.469-.08a20.051,20.051,0,0,0-7.21.061,26.9,26.9,0,0,0-3.281,4.479c1.07,3.541,4.135,7.069,6.942,7.74l-9.268,3.831-.715-1.789c.108,2.773,1.481,4.724,4.592,4.788-3.4,1.82-10.831-5.752-8.378-14.271l-.1-.243c-8.54-.073-11.745,5.07-13.957,10.213-3.174,7.379-4.306,14.758-16.224,6.729,1.382-.866,2.866-2.323,2.1-4.039A24.42,24.42,0,0,0,1117,64.3c-1.953,2.344-4,3.827-6.423,3.429a120.748,120.748,0,0,1-14.718-5.558,10.506,10.506,0,0,1-1.715,5.644c.1-4.8-4.179-4.837-9.239-6.848l4.919,11.512c-4.288-.035-8.507-.1-13.656,2.653l8.607-4.646c-9.328-2.046-23.527-20.459-39.88-9.345,2.073-2.226,5.112-5.507,6.553-8.974-2.092-.131-4.278-.464-6.455-.8-8.193-1.252-16.267-2.5-18.765,7A59.232,59.232,0,0,0,1003.9,48.132a16.145,16.145,0,0,0,1.944,2.761c-8.159-2.556-14.634-2.273-20.909-1.991-6.645.3-13.065.6-21.023-2.473,5.768,2.8,8.733,6.37-.012,11.035,3.526-7.579-7.849-8.676-15.953-11.865q-2.974.006-5.946-.041l-.907,2.96a9.867,9.867,0,0,1-1.893-3.024,146.86,146.86,0,0,1-19.74-1.761L922.5,41.2q-.628-.524-1.227-.949c-2.658,1.907-4.766,4.782-6.812,7.657-4.589,6.445-8.874,12.891-18.374,8.426a10.225,10.225,0,0,1-8.847.781l4.2-4.132-.473-.487a38.765,38.765,0,0,0-16.628-5.856c.515,1.353.24,3.051-1.354,5.36a35.323,35.323,0,0,0-4.848-5.8c-20.227-.365-43.545,9-58.177,17.455a8.139,8.139,0,0,0,2.15-6.626A23.667,23.667,0,0,1,803.6,55.72c-.22,6.338,4.718,14.351-4.586,10.1,2.926-2.774.621-9.05-2.084-9.206L785.319,70.867c-30.4-9.8-66.163-20.06-97.675-11.807-5.842-5.045-1.563-10.212-.18-15.118-24.99,3.017-49.84,14.927-72.4,17.528l-2.294-16.506c-11.052,0-6.844,25.3-21.223,10.576-3.206-2.219,9.5-1.057,13.447-8.391-12.752-7.213-15.174-.82-18.946,5.573-2.794,4.733-6.327,9.467-15.342,8.678l5.541-18.638a18.724,18.724,0,0,0-5.858-2.831c-.14.1-.276.209-.405.318-.061-.145-.121-.294-.181-.447-10.57-2.031-12.982,14.428-17.995,23.766-11.816,11.376-15.742,1.33-21.091-8.716-4.98-9.352-11.193-18.7-26.154-10.772-4.92,9.172,1.623,13.559-3.3,22.713-10.922-2.412-17.031-.313-23.152,1.787s-12.23,4.191-23.161,1.8c-5.938-14.135-2.963-13.9-.269-13.669,2.606.226,4.948.451-1.3-12.338l16.633,6.293C456.37,36.725,480.441,45.92,480.926,32.7c-9.454,2.511-18.068,7.914-26.608,8.344l.763-3.716c-4.455,2.448-8.955,5-13.277,6.9l-.109.071.018-.032q-1.03.45-2.045.849c0-4.291,1.931-5.8,4.2-6.622l-9.943.079a76.52,76.52,0,0,0,1.459,8.331,12.544,12.544,0,0,0-1.546-3.28c-14.058,17.91-37.815,4.352-49.88,18.6,1.944-3.71.281-4.785-.351-7.732-8.507-.711-17.264,15.76-28.677,20.51-6.223-9.189,3.6-27.48-14.679-22.383-2.9,9.2,3.275,24.489-6.3,27.373Zm777.246-14.855A12.469,12.469,0,0,0,1112,63.895,11.324,11.324,0,0,0,1107.752,65.145ZM680.139,40.386c1.673-.19,4.308-.451,7.384-.78v-.277C683.816,39.919,681.682,40.2,680.139,40.386Zm37.455-1.265c-4.489-3.988-11.573-6.693-9.931-9.848-3.016-.26-4.158,4.611-3.106,9.31q1.543-.028,3.044-.029A71.209,71.209,0,0,1,717.594,39.121Zm-273.5-.7c3.737-1.27,8.233-.889,6.553-7.97A16.958,16.958,0,0,0,444.093,38.419ZM433.507,23.465a81.23,81.23,0,0,0,.359,14.6c5.611-4.466,7.6-8.666,8.088-18.471C439.477,21.021,436.591,23.325,433.507,23.465Zm757.073,9.866a6,6,0,0,0,1.427-.9A7.671,7.671,0,0,0,1190.579,33.33Zm293.5-.642a9.832,9.832,0,0,0,.263-1.186A2.968,2.968,0,0,0,1484.084,32.689ZM503.271,12.258a4.9,4.9,0,0,0,.625-.412A7.335,7.335,0,0,1,503.271,12.258Zm614.661,62.383a3.482,3.482,0,0,1,.48.134,9.839,9.839,0,0,1-1.96.435C1116.194,75.211,1116.508,75.044,1117.932,74.641Zm-985.289-2.4a8.673,8.673,0,0,1,.01,1.259C131.753,73.454,131.963,72.951,132.643,72.241Zm997.387.117,2.62-1.573.04,1.8Zm237.113-4.925a8.514,8.514,0,0,1,2.561,3.092C1367.8,69.041,1367.233,68.151,1367.143,67.432ZM435.717,63.747a20.335,20.335,0,0,0,4.659,6.355c-1.789.045-3.252.069-4.438.069C425.232,70.171,437.112,68.27,435.717,63.747Zm726.769,6.184,3.68-.845a4.191,4.191,0,0,1-2.79.9A7.462,7.462,0,0,1,1162.486,69.931Zm-310.009-.89,9.43-1.411-12.78,2.337Zm362.21-3.03q-.309.251-.634.522Q1214.367,66.266,1214.688,66.01Zm-208.845-.862c1.16.18,2.23.306,3.51.566a1.579,1.579,0,0,1-.987.305A5.518,5.518,0,0,1,1005.843,65.149Zm212.041-1.469c-1.065.743-2.154,1.5-3.2,2.331A33.286,33.286,0,0,1,1217.884,63.679ZM81.527,60.593q-.521.45-1.1.859C80.78,61.145,81.148,60.86,81.527,60.593Zm147.6-3.372q.47.089.92.192a1.113,1.113,0,0,1-.275.036A1.054,1.054,0,0,1,229.129,57.221Zm206.552-9.1c.031.018.031.072.031.072A.105.105,0,0,0,435.681,48.12Zm-.3-1.212a11.659,11.659,0,0,1,.287,1.176Q435.523,47.5,435.384,46.908Z" transform="translate(0 0)" fill="#312f30"/>
  </g>
</svg>
